<svg width="512" height="513" viewBox="0 0 512 513" fill="none" xmlns="http://www.w3.org/2000/svg">
<rect width="512" height="512" fill="white"/>
<g style="mix-blend-mode:luminosity">
<path d="M58 0H71V513H58V0Z" fill="#F0CB51"/>
<path d="M112 329H125V513H112V329Z" fill="#F0CB51"/>
<path d="M184 317H197V513H184V317Z" fill="#F0CB51"/>
<path d="M130 385H143V513H130V385Z" fill="#E3646B"/>
<path d="M148 359H161V513H148V359Z" fill="#E3646B"/>
<path d="M202 309H215V513H202V309Z" fill="#E3646B"/>
<path d="M220 314.5H233V513H220V314.5Z" fill="#3C87E0"/>
<path d="M166 333H179V513H166V333Z" fill="#3C87E0"/>
<path d="M94 274H107V513H94V274Z" fill="#3C87E0"/>
<path d="M76 194H89V513H76V194Z" fill="#3C87E0"/>
<path d="M238 350.5H251V513H238V350.5Z" fill="#F0CB51"/>
<path d="M364 88.5H377V513H364V88.5Z" fill="#F0CB51"/>
<path d="M472 342H485V513H472V342Z" fill="#F0CB51"/>
<path d="M490 298H503V513H490V298Z" fill="#F0CB51"/>
<path d="M256 21.5H269V507H256V21.5Z" fill="#F0CB51"/>
<path d="M274 30H287V496.5H274V30Z" fill="#3C87E0"/>
<path d="M382 71H395V513H382V71Z" fill="#3C87E0"/>
<path d="M436 201H449V513H436V201Z" fill="#3C87E0"/>
<path d="M40 0H53V513H40V0Z" fill="#E3646B"/>
<path d="M292 49.5H305V474H292V49.5Z" fill="#E3646B"/>
<path d="M310 99H323V513H310V99Z" fill="#F0CB51"/>
<path d="M22 4H35V513H22V4Z" fill="#F0CB51"/>
<path d="M328 75H341V513H328V75Z" fill="#E3646B"/>
<path d="M400 63.5H413V513H400V63.5Z" fill="#E3646B"/>
<path d="M418 173H431V513H418V173Z" fill="#E3646B"/>
<path d="M454 309H467V513H454V309Z" fill="#E3646B"/>
<path d="M346 79H359V513H346V79Z" fill="#3C87E0"/>
<path fill-rule="evenodd" clip-rule="evenodd" d="M512 513H0V0H512V513ZM257.571 269.121C243.542 263.429 228.208 260.294 212.143 260.294C145.237 260.294 91.0002 314.654 91 381.711C91 448.768 145.237 503.128 212.143 503.128C279.048 503.128 333.286 448.768 333.286 381.711C333.286 339.979 312.279 303.166 280.286 281.312V199.586H409V169.231H280.286V123.7H409V25.0488H257.571V269.121Z" fill="white"/>
</g>
<path d="M411.317 231.58L411.879 224.954H463.314V225.516L462.528 234.725H466.122L467.133 223.719H471.962L470.951 234.725H468.144L467.357 243.821H478.588L478.026 250.447H466.796L465.561 264.261H476.791L476.229 270.774H464.999L463.314 289.754H409.184L411.317 264.261H443.549L444.784 250.447H409.745L410.307 243.821H445.346L446.469 231.58H411.317ZM377.401 289.754L383.241 223.719H407.948L402.108 289.754H377.401ZM479.374 234.725H474.545L475.556 223.719H480.385L479.374 234.725ZM441.864 283.128L442.987 270.774H430.185L429.062 283.128H441.864Z" fill="black"/>
<path d="M267.23 235.174L267.792 228.548H276.215L277.001 223.719H301.596L300.81 228.548H354.491L354.042 235.174H299.687L290.59 289.754H265.995L275.092 235.174H267.23ZM305.976 286.272L306.537 279.646L360.219 283.128L359.77 289.754L305.976 286.272ZM310.805 254.939L311.366 248.426H358.983L358.422 254.939H310.805Z" fill="black"/>
<path d="M155.263 289.754L160.99 223.719H185.697L180.531 283.128H237.245L236.684 289.754H155.263Z" fill="black"/>
<path d="M38.0166 235.623L38.5781 228.997H69.5742L70.0234 223.719H94.7305L94.2812 228.997H132.353L131.791 235.623H93.7197L92.5967 248.426H130.668L127.074 289.754H102.367L103.715 274.93L33.4121 289.754L37.0059 248.426H67.8896L69.0127 235.623H38.0166ZM67.4404 254.939H57.5576L55.6484 277.288L65.6436 275.154L67.4404 254.939ZM90.6875 269.876L104.389 267.068L105.512 254.939H92.0352L90.6875 269.876Z" fill="black"/>
</svg>
